<svg xmlns="http://www.w3.org/2000/svg" xmlns:xlink="http://www.w3.org/1999/xlink" x="0" y="0" version="1.1" viewBox="0 0 26 26" width="104" height="104" style="fill: rgb(255, 255, 255);"><g fill="none" stroke="none" stroke-width="1" stroke-linecap="butt" stroke-linejoin="miter" stroke-miterlimit="10" stroke-dasharray="" stroke-dashoffset="0" font-family="sans-serif" font-weight="normal" font-size="12" text-anchor="start" mix-blend-mode="normal"><g><g><path d="M0,26l0,-26l26,0l0,26z" fill="none"/><path d="M0,26l0,-26l26,0l0,26z" fill="#00a1cd"/><g fill="#ffffff"><path d="M15.1378,14.7482c-0.0954,-0.0312 -0.6984,-0.303 -0.3216,-1.4484l-0.0054,0c0.9822,-1.0116 1.7328,-2.6394 1.7328,-4.242c0,-2.4642 -1.6386,-3.756 -3.543,-3.756c-1.9056,0 -3.5352,1.2912 -3.5352,3.756c0,1.6092 0.7464,3.2436 1.7346,4.2528c0.3852,1.0104 -0.3036,1.3854 -0.4476,1.4376c-1.9944,0.7218 -4.3344,2.0364 -4.3344,3.3342c0,0.3504 0,0.138 0,0.4866c0,1.7682 3.4284,2.1702 6.6012,2.1702c3.1776,0 6.5628,-0.402 6.5628,-2.1702c0,-0.348 0,-0.1362 0,-0.4866c0,-1.3368 -2.3514,-2.6412 -4.4442,-3.3342z"/></g></g></g></g></svg>